<svg width="51" height="48" viewBox="0 0 51 48" fill="none" xmlns="http://www.w3.org/2000/svg">
<path fill-rule="evenodd" clip-rule="evenodd" d="M25.6149 47.1486C39.4194 47.1486 50.6143 36.7677 50.6143 23.9641C50.6143 11.1546 39.4194 0.769043 25.6149 0.769043C11.8053 0.769043 0.614258 11.1534 0.614258 23.9641C0.614258 36.7677 11.8053 47.1486 25.6149 47.1486Z" fill="#E30613"/>
<path fill-rule="evenodd" clip-rule="evenodd" d="M45.4893 25.2793C45.4893 25.2793 44.8388 25.7122 44.377 25.7122C44.026 25.7122 43.8322 25.4412 43.8322 25.1444C43.8322 24.4733 44.9671 21.1694 44.9671 21.1694L42.1952 21.2046L42.0505 21.6528C42.0505 21.6528 41.6478 20.8949 40.1945 20.8949C37.3747 20.8949 35.8283 23.1487 35.7629 24.4745C35.749 24.7607 35.7453 24.803 35.7453 24.803C35.6798 24.8734 34.6845 25.9258 33.4615 25.9258C32.4826 25.9258 32.3202 25.1643 32.3202 24.6786C32.3202 24.1518 32.7934 22.0681 34.1259 22.0681C34.8531 22.0681 35.2973 22.6524 35.2973 22.6524L35.6912 21.4604C35.6912 21.4604 35.0696 21.0122 33.8063 21.0099C31.0796 21.0064 29.2199 22.9047 29.1544 24.6153C29.1406 24.8698 29.1293 24.9543 29.1343 24.9696C29.0437 25.0728 28.373 25.7885 27.5023 25.7885C26.9059 25.7885 26.9059 25.3567 26.9059 25.1655C26.9059 24.9062 28.0836 21.187 28.0836 21.187L25.0046 21.2281L23.9062 24.8405C23.9062 24.8405 22.2176 25.9739 19.8583 26.1311C18.6416 26.2073 18.2213 25.5245 18.2213 25.1209C18.2213 24.9555 18.2213 24.9555 18.2213 24.9555C18.2213 24.9555 18.7183 24.9837 19.0895 24.9837C19.3789 24.9837 22.975 24.7525 22.975 22.7111C22.975 21.5449 21.718 21.1002 20.1263 21.1002C17.1883 21.1002 15.1272 22.7909 15.1272 24.7971C15.1272 26.6274 16.8158 27.4146 18.9888 27.4146C21.4563 27.4146 23.8634 26.0149 23.8634 26.0149C23.8634 26.0149 23.998 27.4146 25.9446 27.4146C27.9528 27.4146 29.5269 26.0149 29.5269 26.0149C29.5269 26.0149 30.4026 27.3606 32.402 27.3606C34.4442 27.3606 36.0108 25.8296 36.0108 25.8296C36.0108 25.8296 36.5581 27.2738 38.5802 27.2738C40.1631 27.2738 41.0099 26.3118 41.0099 26.3118C41.0099 26.3118 41.4603 27.2738 42.8407 27.2738C44.5205 27.2738 45.7812 26.1745 45.7812 26.1745L45.4893 25.2793ZM20.2547 21.9297C20.6686 21.9532 20.948 22.2265 20.9341 22.5081C20.8649 24.3231 18.4528 24.0415 18.4528 24.0415C18.4528 24.0415 18.8454 21.8499 20.2547 21.9297ZM39.6245 25.9246C38.8658 25.9246 38.8658 25.1514 38.8658 24.9273C38.8658 24.336 39.3653 21.9872 40.7393 21.9872C41.3182 21.9872 41.6289 22.4412 41.6289 22.7791C41.6277 22.8507 41.2791 25.9246 39.6245 25.9246Z" fill="white"/>
<path fill-rule="evenodd" clip-rule="evenodd" d="M46.0428 27.7231C46.0428 27.7231 39.574 29.8138 27.2253 29.6731C18.7106 29.5768 12.2154 27.2444 12.2154 27.2444C12.2154 27.2444 12.4255 26.8643 12.5639 26.6085C13.4183 24.9953 14.4236 21.7196 14.4236 21.7196C14.4236 21.7196 20.2771 20.205 20.2771 15.8945C20.2771 14.53 18.9094 13.6512 17.5593 13.5961C12.8433 13.4271 11.5334 19.6606 11.244 20.7224C11.2276 20.7986 11.2201 20.8221 11.2201 20.8221C9.763 20.6367 8.94386 20.3622 8.94386 20.3622L8.60916 21.2022C9.59187 21.634 11.0213 21.7748 11.0213 21.7748C10.7394 23.4455 9.34022 26.6097 9.34022 26.6097C9.34022 26.6097 8.04797 26.2143 6.44619 26.2143C4.36627 26.2143 3.65157 27.1306 3.60123 27.7055C3.46282 29.1955 5.48235 29.8948 6.89162 29.8948C9.63969 29.8948 11.0703 28.5174 11.0703 28.5174C11.0703 28.5174 18.8037 31.2264 26.873 31.2264C37.4312 31.2264 46.3385 28.6183 46.3385 28.6183L46.0428 27.7231ZM17.7845 14.8327C18.6904 14.8327 18.9899 15.5132 18.9144 16.1268C18.474 19.7286 14.6187 20.5522 14.6187 20.5522C14.6187 20.5522 15.5762 14.8327 17.7845 14.8327ZM6.29897 28.7345C5.5201 28.7567 5.01428 28.2769 5.01428 28.0094C5.01428 27.4146 5.79944 27.3219 6.29897 27.3535C7.5044 27.4146 8.54122 27.7982 8.54122 27.7982C8.54122 27.7982 7.31817 28.7051 6.29897 28.7345Z" fill="white"/>
<path fill-rule="evenodd" clip-rule="evenodd" d="M27.1549 17.7975C26.1735 17.7975 25.45 18.1683 25.45 19.0212C25.45 19.8835 26.288 20.1205 27.1549 20.1205C28.0256 20.1205 28.8234 19.7404 28.8234 18.8616C28.8234 17.9794 27.8658 17.7975 27.1549 17.7975Z" fill="white"/>
</svg>
